<?xml version="1.0" standalone="no"?>
<!DOCTYPE svg PUBLIC "-//W3C//DTD SVG 20010904//EN"
 "http://www.w3.org/TR/2001/REC-SVG-20010904/DTD/svg10.dtd">
<svg version="1.0" xmlns="http://www.w3.org/2000/svg"
 width="422.000000pt" height="422.000000pt" viewBox="0 0 422.000000 422.000000"
 preserveAspectRatio="xMidYMid meet">
<metadata>
Created by potrace 1.14, written by Peter Selinger 2001-2017
</metadata>
<g transform="translate(0.000000,422.000000) scale(0.100000,-0.100000)"
fill="#000000" stroke="none">
<path d="M2105 4013 c-37 -115 -91 -283 -121 -374 -30 -91 -54 -171 -54 -177
0 -18 111 -11 121 8 4 8 49 143 99 300 50 157 98 303 107 325 8 22 16 47 18
55 2 8 6 27 10 43 l7 27 -60 0 -60 0 -67 -207z"/>
<path d="M1675 4146 c-38 -24 -92 -55 -120 -70 -210 -118 -304 -179 -315 -205
-20 -49 6 -91 86 -138 38 -22 132 -77 209 -123 77 -45 159 -93 182 -106 l43
-25 -2 97 -1 96 -36 22 c-53 34 -180 104 -223 124 -21 9 -38 19 -38 22 0 3 21
16 48 30 26 13 93 49 149 79 l102 54 0 93 c0 52 -3 94 -7 93 -4 0 -38 -20 -77
-43z"/>
<path d="M2462 4095 l0 -96 77 -44 c42 -25 109 -62 148 -82 40 -21 73 -40 73
-43 0 -3 -67 -39 -148 -81 l-147 -76 -3 -97 -2 -96 41 22 c59 33 63 35 279
161 173 102 195 117 202 146 16 58 -4 78 -187 189 -93 56 -186 110 -205 121
-19 10 -56 30 -82 45 l-47 27 1 -96z"/>
<path d="M1870 3310 c-14 -4 -59 -24 -100 -46 -41 -21 -78 -38 -82 -37 -4 2
-37 -7 -74 -18 -70 -22 -108 -53 -216 -179 -40 -46 -48 -51 -48 -32 0 19 -30
34 -30 15 0 -16 -58 -41 -83 -36 -13 3 -28 0 -31 -6 -15 -23 -24 -10 -16 24 7
33 7 34 -14 23 -11 -6 -29 -17 -39 -26 -14 -12 -22 -13 -42 -4 -31 14 -31 23
0 72 24 39 24 40 5 50 -19 10 -19 11 -1 59 18 49 18 49 -1 46 -28 -6 -109 -59
-139 -92 -59 -64 -99 -146 -113 -233 -3 -19 -8 -48 -11 -65 -3 -16 -10 -57
-16 -89 -14 -78 -53 -181 -85 -223 -14 -18 -43 -42 -65 -53 -21 -11 -39 -25
-39 -30 0 -27 80 -79 113 -72 12 3 8 -11 -18 -57 -32 -55 -31 -63 8 -81 22
-10 32 -21 30 -35 -1 -24 -11 -92 -17 -120 -19 -96 -18 -127 4 -150 l22 -23
-34 -64 c-19 -35 -41 -73 -48 -85 -19 -29 2 -58 31 -42 10 5 19 7 19 3 0 -3 6
-2 13 3 15 13 77 34 77 27 0 -25 -48 -99 -78 -121 -20 -15 -45 -36 -56 -46
-25 -26 -32 -94 -12 -131 8 -16 13 -32 11 -36 -2 -3 -6 -26 -9 -50 -6 -50 -15
-112 -22 -150 -16 -87 -16 -147 0 -178 9 -18 23 -32 30 -32 16 0 25 -29 17
-51 -6 -15 -40 -61 -83 -112 -14 -15 -15 -23 -6 -34 22 -27 50 -37 111 -42 14
-1 16 -5 9 -18 -12 -23 -4 -45 11 -36 14 9 32 14 70 18 43 5 60 -29 52 -100
-9 -69 7 -98 36 -66 17 18 21 18 46 6 72 -36 104 -25 184 59 57 61 51 21 -11
-67 -48 -68 -49 -71 -30 -84 16 -11 18 -18 10 -33 -12 -23 -8 -26 60 -35 62
-8 80 -17 133 -63 51 -44 98 -46 159 -6 35 23 68 31 68 18 0 -3 -25 -34 -55
-69 -30 -34 -55 -64 -55 -67 0 -3 46 -4 101 -2 78 2 112 -1 148 -15 48 -18 76
-17 101 4 22 18 60 28 60 16 0 -6 -14 -30 -31 -53 -27 -38 -28 -43 -12 -49 29
-10 65 8 104 53 44 50 49 48 104 -47 72 -123 120 -140 186 -66 l37 42 19 -28
c11 -15 23 -36 26 -45 12 -33 22 -19 41 53 11 44 22 69 29 66 7 -3 28 -12 48
-20 19 -9 41 -12 48 -8 13 8 12 11 -36 94 -7 12 -11 23 -9 24 1 2 25 -9 53
-24 l51 -27 63 22 c35 12 80 24 99 27 118 19 146 26 162 45 9 11 21 20 27 20
17 0 81 33 81 42 0 18 82 61 123 63 23 2 48 3 56 4 8 1 11 8 8 22 -3 13 2 28
14 40 19 19 19 20 -36 94 -30 41 -55 77 -55 80 0 16 31 -1 73 -41 38 -37 57
-48 91 -51 35 -4 47 -1 72 20 23 21 27 28 17 38 -29 29 -1 111 30 92 7 -5 30
-20 52 -35 22 -14 55 -29 73 -33 32 -7 32 -6 22 21 -13 32 -7 54 14 54 12 0
14 5 6 24 -10 28 -2 33 60 37 37 3 70 24 70 44 0 7 -14 24 -31 37 -40 34 -79
87 -79 110 0 9 15 33 34 51 31 31 34 39 31 83 -3 50 -10 106 -22 179 -8 51 -7
168 2 221 9 53 -2 74 -71 125 -51 37 -96 101 -81 115 3 3 36 -2 72 -11 37 -9
68 -15 70 -13 2 2 -18 47 -43 101 l-45 98 21 15 c19 13 21 22 17 62 -3 26 -7
58 -10 72 -3 14 -8 56 -11 93 l-7 68 32 12 c17 6 31 15 31 19 0 4 -11 27 -25
52 -14 25 -25 47 -25 50 0 3 23 15 50 27 52 22 74 46 62 66 -4 6 -28 20 -53
32 -35 16 -51 32 -62 59 -19 43 -55 156 -62 192 -3 14 -7 36 -10 50 -2 14 -7
39 -10 55 -2 17 -14 66 -25 110 -30 117 -73 176 -181 249 -55 37 -85 46 -76
24 32 -88 32 -89 14 -103 -16 -12 -16 -14 3 -38 26 -33 25 -63 -1 -77 -16 -9
-24 -8 -38 4 -10 9 -22 16 -28 16 -6 0 -13 6 -16 13 -3 9 -8 9 -17 1 -8 -8 -9
-14 -1 -18 6 -4 11 -13 11 -21 0 -22 -78 -5 -152 33 -5 2 -8 -9 -8 -25 -1 -27
-1 -27 -16 -8 -78 104 -156 186 -197 207 -38 19 -51 23 -107 34 -43 8 -93 26
-145 51 -67 32 -109 38 -138 19 -34 -23 -259 -26 -307 -4 -52 23 -63 26 -90
18z m25 -389 c87 -5 151 -5 350 0 17 0 56 0 87 -1 34 0 70 5 87 15 37 19 48 9
92 -78 17 -34 40 -77 51 -95 24 -39 21 -46 -13 -28 -55 28 -118 48 -136 42
-11 -3 -28 -23 -38 -44 l-18 -37 -11 28 c-10 27 -16 29 -88 30 -32 0 -39 5
-47 29 l-10 29 -83 -7 c-46 -3 -89 -7 -95 -7 -13 0 -17 -11 -14 -35 2 -10 -6
-12 -29 -7 -17 4 -47 4 -66 1 -27 -6 -35 -13 -42 -38 l-8 -32 -23 37 c-40 66
-84 72 -156 22 -50 -34 -61 -32 -37 8 11 17 39 69 62 114 38 76 43 82 62 72
12 -6 67 -14 123 -18z"/>
</g>
</svg>
